<?xml version="1.0" standalone="no"?>
<!DOCTYPE svg PUBLIC "-//W3C//DTD SVG 20010904//EN"
 "http://www.w3.org/TR/2001/REC-SVG-20010904/DTD/svg10.dtd">
<svg version="1.0" xmlns="http://www.w3.org/2000/svg"
 width="1408.000000pt" height="768.000000pt" viewBox="0 0 1408.000000 768.000000"
 preserveAspectRatio="xMidYMid meet">

<g transform="translate(0.000000,768.000000) scale(0.100000,-0.100000)"
fill="#000000" stroke="none">
<path d="M6715 6110 c-669 -245 -652 -238 -694 -286 -20 -23 -43 -60 -49 -82
-15 -49 -16 -446 -2 -614 43 -521 310 -962 760 -1258 101 -66 220 -129 283
-150 37 -12 43 -10 144 39 452 220 776 599 899 1051 48 175 55 239 61 571 5
277 3 323 -11 366 -20 60 -75 117 -133 137 -57 20 -55 10 2 -14 43 -18 75 -44
104 -82 7 -9 14 -50 16 -90 2 -40 1 -58 -2 -40 -5 36 -22 42 -41 12 -8 -13 -9
-20 -1 -20 6 0 9 -5 7 -12 -5 -15 -68 -23 -68 -9 0 6 -11 11 -25 11 -14 0 -25
-4 -25 -10 0 -5 -11 -10 -24 -10 -14 0 -28 -5 -32 -12 -5 -7 -3 -8 6 -3 8 5
11 4 6 -3 -4 -7 -17 -8 -39 -1 -44 13 -60 12 -51 -3 6 -10 5 -10 -7 -1 -12 10
-18 10 -28 0 -7 -6 -11 -7 -9 -2 3 12 -48 65 -63 65 -6 0 -17 7 -25 15 -9 8
-12 15 -9 15 4 0 0 11 -9 25 -9 13 -16 31 -16 40 0 43 -59 101 -112 109 -25 4
-36 10 -32 19 6 17 -18 64 -42 82 -18 13 -17 14 9 26 28 13 28 13 6 21 -12 5
-20 11 -17 13 3 3 17 1 31 -4 19 -7 33 -7 52 3 l25 13 -45 17 c-24 10 -50 14
-56 10 -7 -4 -9 -3 -6 3 7 11 -349 143 -403 149 -26 3 -111 -24 -335 -106z
m805 -84 c-7 -7 -14 -6 -21 1 -9 9 -7 12 9 10 14 -1 18 -5 12 -11z m-675 -123
c12 -12 16 -27 12 -53 l-5 -37 85 -38 85 -38 25 31 c29 38 39 38 138 11 54
-14 90 -19 128 -14 34 4 60 1 77 -8 22 -11 25 -19 25 -72 1 -54 8 -73 65 -185
36 -69 85 -148 110 -176 25 -28 54 -64 66 -80 l21 -29 59 14 c32 7 73 14 89
15 28 1 30 -1 28 -32 -3 -70 -60 -161 -165 -264 -121 -119 -134 -146 -113
-227 20 -77 19 -160 -1 -189 -8 -12 -40 -40 -70 -62 l-54 -40 3 -55 c2 -50 -1
-57 -34 -92 -20 -21 -40 -48 -43 -60 -8 -24 -36 -52 -36 -35 0 6 5 14 10 17 8
5 7 11 -1 21 -10 12 -9 13 7 7 17 -6 17 -5 6 10 -19 22 -8 49 29 70 30 17 31
20 26 65 -7 60 0 71 73 127 l60 46 0 54 c0 30 -4 56 -10 60 -5 3 -40 8 -77 12
-81 7 -114 28 -170 110 -36 53 -38 58 -33 122 9 150 5 245 -13 279 -14 26 -16
36 -6 48 9 11 15 12 26 2 39 -32 56 -135 42 -254 -14 -121 -8 -148 46 -211 45
-51 46 -51 110 -55 l64 -3 -1 52 c-1 46 3 60 37 109 21 30 69 83 106 116 47
41 78 80 101 123 18 35 30 66 27 69 -2 3 -35 0 -73 -7 l-68 -11 -22 27 c-11
15 -47 57 -79 94 -31 37 -74 100 -94 141 -21 40 -39 68 -41 63 -3 -8 -10 -7
-24 0 -18 9 -20 9 -15 -4 3 -9 -1 -21 -8 -27 -12 -10 -8 -20 24 -59 48 -57 84
-129 101 -201 8 -35 22 -61 37 -73 23 -18 31 -60 15 -84 -4 -6 -19 -16 -34
-22 -22 -8 -31 -6 -52 10 -29 23 -33 54 -11 86 27 39 -17 163 -94 260 -31 40
-37 53 -28 64 9 10 8 10 -6 -1 -10 -7 -16 -18 -13 -25 2 -6 -2 -12 -9 -12 -8
0 -12 11 -11 28 1 15 -1 26 -6 23 -4 -3 -24 4 -45 15 -60 30 -118 42 -202 42
-215 0 -382 -156 -394 -368 l-3 -58 -50 -16 c-55 -18 -225 -35 -223 -22 3 20
-2 27 -11 13 -7 -10 -10 -11 -10 -2 0 7 -12 17 -26 22 -15 6 -22 14 -18 22 4
7 3 8 -5 4 -14 -9 -22 0 -89 87 -56 73 -64 108 -40 173 9 25 9 45 1 81 -11 44
-9 52 15 98 15 28 54 77 88 111 34 34 64 73 68 87 3 15 30 51 60 81 52 53 55
55 85 45 25 -9 43 -7 93 10 35 11 101 25 148 30 47 4 88 9 92 10 4 0 14 -7 23
-16z m442 -129 c-3 -3 -12 -4 -19 -1 -8 3 -5 6 6 6 11 1 17 -2 13 -5z m793
-125 c0 -6 -4 -7 -10 -4 -5 3 -10 11 -10 16 0 6 5 7 10 4 6 -3 10 -11 10 -16z
m-929 -205 c106 -30 198 -115 235 -216 9 -24 19 -94 23 -155 6 -104 9 -115 34
-141 43 -44 31 -94 -25 -107 -50 -12 -88 54 -55 99 9 12 11 34 6 74 -4 31 -8
82 -8 113 -2 114 -59 207 -162 264 -45 25 -69 30 -144 35 -73 4 -90 8 -93 22
-6 30 102 37 189 12z m263 9 c-5 -5 -12 -12 -16 -18 -4 -6 -8 -2 -8 8 0 9 7
17 17 17 9 0 12 -3 7 -7z m-486 -44 c1 -9 -15 -25 -38 -38 -22 -12 -40 -30
-40 -38 0 -22 -29 -53 -50 -53 -9 0 -25 9 -36 21 -17 19 -17 23 -3 47 9 17 25
28 42 30 16 2 45 14 64 28 39 26 56 27 61 3z m206 -64 c24 -13 27 -13 23 0 -4
9 -1 12 9 8 7 -3 14 -9 14 -14 0 -5 7 -9 15 -9 21 0 35 -32 24 -53 -13 -23
-28 -21 -57 6 -21 19 -34 22 -107 22 -76 0 -87 -2 -126 -30 -63 -44 -87 -99
-99 -225 -5 -58 -11 -116 -12 -129 -5 -44 19 -33 46 21 21 42 26 66 26 128 0
64 4 83 23 111 77 115 241 103 291 -21 27 -69 -1 -85 -34 -19 -16 30 -33 46
-68 61 -42 19 -50 20 -86 7 -60 -21 -86 -65 -86 -149 0 -80 -13 -122 -52 -172
-28 -37 -28 -38 -12 -64 l18 -26 18 24 c48 60 71 122 77 209 6 91 17 114 59
130 29 11 72 -11 72 -37 0 -12 -7 -14 -34 -9 -43 8 -48 0 -52 -83 -4 -87 -27
-150 -78 -219 -39 -55 -47 -85 -26 -106 11 -12 83 81 114 147 14 30 31 89 38
130 10 65 14 76 31 76 18 0 19 -6 15 -68 -7 -93 -59 -201 -137 -285 -46 -49
-60 -71 -66 -106 l-7 -45 48 43 c26 23 62 59 80 80 49 56 110 180 124 247 21
106 25 119 43 122 13 3 17 -4 17 -30 0 -52 -27 -152 -60 -224 -16 -37 -30 -70
-30 -75 0 -4 12 -21 26 -38 l25 -31 -48 -62 c-28 -37 -49 -74 -49 -90 -1 -16
-3 -90 -4 -165 -1 -76 -4 -130 -7 -120 -2 9 -9 15 -14 12 -5 -4 -9 60 -9 157
l0 163 45 43 c49 48 52 57 29 90 l-15 23 -45 -50 c-58 -64 -140 -125 -156
-115 -7 4 -10 4 -6 -1 4 -4 0 -14 -9 -20 -15 -11 -13 -19 20 -87 39 -78 46
-113 24 -121 -9 -3 -17 10 -25 39 -7 24 -12 47 -11 50 0 4 -4 10 -9 13 -17 11
-42 70 -42 99 0 16 9 55 20 86 30 89 13 150 -76 276 -16 22 -23 42 -19 55 3
11 9 39 12 62 l5 42 -38 6 c-68 11 -67 9 -59 78 9 80 38 149 59 141 9 -3 16
-7 16 -8 0 0 -7 -23 -15 -50 -8 -27 -15 -70 -15 -95 0 -42 2 -46 25 -46 22 0
25 4 25 33 0 82 54 188 115 228 66 43 175 57 229 29z m553 -270 c-4 -10 -19
-15 -43 -15 -46 0 -41 23 7 30 40 7 43 6 36 -15z m-434 -338 c48 -74 92 -117
120 -117 27 0 57 -32 57 -60 0 -9 -11 -27 -24 -39 -42 -39 -102 -5 -94 53 2
16 -14 43 -50 87 -35 43 -52 73 -52 91 0 39 10 35 43 -15z m558 -134 c9 -24 5
-46 -27 -138 -49 -145 -56 -153 -94 -115 -18 18 -20 18 -20 3 -1 -16 -2 -16
-15 1 -15 20 -15 20 -16 0 -1 -15 -2 -16 -6 -2 -2 9 3 31 12 48 9 17 16 44 15
58 -4 51 0 58 39 80 22 13 49 38 61 57 26 42 37 44 51 8z m-577 -129 c22 -21
20 -61 -4 -81 -15 -13 -20 -30 -20 -70 0 -50 1 -52 29 -51 38 1 51 -8 51 -37
0 -41 -37 -42 -76 -3 -29 29 -33 39 -34 85 0 42 -5 57 -25 77 -30 30 -31 50
-5 76 24 24 63 26 84 4z m80 -333 c-15 -14 -21 -17 -13 -7 13 18 13 19 -8 7
-31 -16 -29 -3 4 31 24 25 28 26 36 12 7 -12 2 -23 -19 -43z"/>
<path d="M6709 5859 c-43 -4 -94 -15 -114 -23 -21 -9 -58 -16 -84 -16 -41 0
-51 -5 -83 -37 -19 -21 -38 -50 -41 -64 -4 -14 -28 -44 -54 -66 -27 -22 -65
-66 -87 -97 -37 -53 -38 -59 -32 -111 6 -55 -13 -128 -38 -148 -6 -5 -2 -6 9
-2 22 8 54 13 101 14 30 1 31 3 43 67 6 37 25 92 41 123 32 64 95 141 115 141
31 0 24 -23 -20 -72 -70 -78 -102 -150 -107 -243 l-3 -50 -78 0 c-68 0 -94 -6
-69 -17 17 -7 83 -108 77 -118 -4 -6 -3 -9 2 -8 11 4 73 -43 68 -52 -2 -3 10
-7 26 -8 l29 -2 1 87 c0 50 8 117 18 155 10 40 14 71 8 77 -4 4 -7 24 -5 42 4
46 47 69 83 45 13 -8 26 -25 30 -36 8 -24 -18 -70 -40 -70 -21 0 -36 -34 -51
-122 -14 -78 -10 -153 7 -164 10 -6 108 12 126 24 6 4 16 36 22 71 38 236 240
396 479 378 l72 -5 0 92 0 93 -32 9 c-30 9 -34 7 -48 -21 -22 -43 -52 -42
-161 5 -120 53 -122 55 -114 102 5 29 3 38 -7 37 -7 -1 -47 -5 -89 -10z m5
-91 c22 -30 20 -61 -4 -83 -28 -25 -28 -90 1 -105 17 -10 33 -5 92 23 119 58
267 77 275 35 3 -14 -4 -18 -30 -18 -61 0 -173 -30 -238 -62 -114 -58 -208
-173 -245 -300 -9 -32 -21 -60 -26 -63 -37 -24 -24 65 27 171 18 39 55 94 82
123 l49 52 -23 16 c-20 12 -24 24 -24 62 0 34 -5 51 -20 64 -24 20 -26 64 -3
89 23 25 68 23 87 -4z m404 -66 c-23 -5 -23 -10 5 -32 17 -15 19 -21 10 -31
-19 -19 -43 -19 -43 0 0 9 -6 23 -12 30 -11 10 -9 11 6 5 14 -5 17 -4 12 5
-13 20 1 42 21 34 17 -7 17 -8 1 -11z"/>
<path d="M6657 5744 c-14 -14 -7 -35 11 -32 9 2 17 10 17 17 0 16 -18 25 -28
15z"/>
<path d="M7100 5665 c0 -5 5 -17 10 -25 5 -8 10 -10 10 -5 0 6 -5 17 -10 25
-5 8 -10 11 -10 5z"/>
<path d="M7210 5624 c0 -90 0 -92 26 -98 14 -4 37 -18 51 -32 l26 -26 -5 26
c-4 21 -2 24 12 16 12 -6 17 -5 17 6 0 7 -5 14 -10 14 -16 0 -70 62 -60 69 6
3 13 13 16 21 4 12 6 11 6 -3 1 -11 6 -15 13 -11 7 4 8 3 4 -5 -5 -7 8 -18 35
-30 24 -11 51 -30 61 -43 11 -13 3 10 -16 49 -37 74 -44 103 -26 103 6 0 10 7
10 15 0 16 -5 17 -97 19 l-63 1 0 -91z"/>
<path d="M7353 5505 c0 -8 4 -12 9 -9 5 3 6 10 3 15 -9 13 -12 11 -12 -6z"/>
<path d="M6473 5434 c-8 -21 13 -42 28 -27 13 13 5 43 -11 43 -6 0 -13 -7 -17
-16z"/>
<path d="M7485 5091 c-8 -15 3 -31 21 -31 9 0 14 7 12 17 -4 20 -24 28 -33 14z"/>
<path d="M7390 4887 c0 -19 10 -27 26 -20 21 8 17 33 -6 33 -11 0 -20 -6 -20
-13z"/>
<path d="M7346 4572 c-9 -14 12 -35 28 -29 23 9 20 37 -3 37 -11 0 -22 -4 -25
-8z"/>
<path d="M7177 4453 c-11 -10 -8 -41 4 -49 16 -9 43 21 36 40 -7 16 -28 21
-40 9z"/>
<path d="M7192 4350 c0 -14 2 -19 5 -12 2 6 2 18 0 25 -3 6 -5 1 -5 -13z"/>
<path d="M7591 6017 c14 -6 24 -18 22 -24 -3 -9 9 -13 44 -12 l48 0 -45 18
c-25 10 -56 21 -70 25 l-25 6 26 -13z"/>
<path d="M7724 5965 c11 -8 29 -15 40 -15 15 0 17 -3 8 -8 -8 -5 9 -12 45 -19
32 -6 67 -14 78 -18 56 -19 -20 17 -95 44 -94 35 -103 37 -76 16z"/>
<path d="M7680 5730 c0 -5 5 -10 11 -10 5 0 7 5 4 10 -3 6 -8 10 -11 10 -2 0
-4 -4 -4 -10z"/>
<path d="M7840 5620 c0 -6 7 -10 15 -10 8 0 15 2 15 4 0 2 -7 6 -15 10 -8 3
-15 1 -15 -4z"/>
<path d="M4761 3233 c-67 -24 -145 -105 -165 -172 -31 -107 -14 -205 50 -279
103 -120 321 -136 437 -31 l42 38 -45 39 -45 40 -27 -23 c-114 -96 -288 -25
-288 117 0 103 67 173 164 172 55 -1 86 -13 123 -47 l22 -20 43 38 c24 22 44
42 46 45 4 10 -62 58 -110 80 -54 24 -182 26 -247 3z"/>
<path d="M5130 3244 c0 -3 50 -84 110 -180 l110 -173 0 -101 0 -100 70 0 70 0
0 106 0 106 105 164 c58 91 105 169 105 175 0 6 -29 9 -72 7 l-72 -3 -34 -60
c-20 -33 -50 -84 -69 -113 l-34 -53 -68 113 -69 113 -76 3 c-42 2 -76 0 -76
-4z"/>
<path d="M5758 3244 c-5 -4 -8 -130 -8 -281 l0 -273 188 0 c205 0 240 8 292
64 21 24 25 37 25 93 0 62 -1 66 -38 99 l-38 35 20 25 c60 76 44 164 -37 211
-44 26 -52 27 -221 31 -97 2 -179 1 -183 -4z m312 -117 c17 -9 26 -22 28 -44
5 -48 -25 -63 -125 -63 l-83 0 0 60 0 60 78 0 c42 0 88 -6 102 -13z m40 -227
c11 -11 20 -29 20 -40 0 -11 -9 -29 -20 -40 -17 -17 -33 -20 -120 -20 l-100 0
0 60 0 60 100 0 c87 0 103 -3 120 -20z"/>
<path d="M6330 2970 l0 -280 185 0 185 0 0 55 0 55 -120 0 -120 0 0 60 0 60
100 0 100 0 0 55 0 55 -100 0 -100 0 0 50 0 49 118 3 117 3 0 55 0 55 -183 3
-182 2 0 -280z"/>
<path d="M6770 2970 l0 -280 60 0 60 0 0 90 c0 88 0 90 24 90 20 0 30 -14 67
-90 l42 -90 68 0 67 0 -51 100 -52 99 23 16 c12 9 32 35 43 57 28 54 24 163
-7 205 -49 66 -99 82 -246 83 l-98 0 0 -280z m202 160 c29 -8 39 -18 48 -44
21 -65 -14 -106 -89 -106 l-41 0 0 80 c0 90 2 92 82 70z"/>
<path d="M7295 3236 c-81 -36 -117 -134 -81 -220 18 -44 53 -69 137 -101 78
-30 100 -56 80 -94 -23 -43 -105 -35 -151 14 -13 14 -26 25 -30 25 -4 0 -21
-21 -39 -46 -32 -43 -32 -46 -16 -64 34 -38 115 -70 174 -70 100 1 169 48 191
131 25 91 -25 168 -135 208 -78 29 -105 47 -105 71 0 53 73 66 135 24 l39 -26
17 24 c37 48 43 66 28 84 -40 48 -176 70 -244 40z"/>
<path d="M7637 3243 c-4 -3 -7 -130 -7 -280 l0 -274 66 3 66 3 2 110 1 110
100 0 100 0 3 -112 3 -113 64 0 65 0 -2 278 -3 277 -62 3 -63 3 0 -111 0 -110
-105 0 -105 0 0 110 0 110 -58 0 c-32 0 -62 -3 -65 -7z"/>
<path d="M8200 3248 c-1 -17 -2 -484 -1 -515 l1 -43 65 0 65 0 -2 278 -3 277
-62 3 c-35 2 -63 2 -63 0z"/>
<path d="M8426 3242 c-3 -5 -5 -131 -5 -280 l0 -272 204 0 205 0 0 55 0 55
-135 0 -135 0 0 60 0 60 116 0 115 0 -3 53 -3 52 -112 3 -113 3 0 54 0 55 130
-5 130 -5 0 60 0 60 -194 0 c-107 0 -197 -4 -200 -8z"/>
<path d="M8910 2970 l0 -280 65 0 65 0 0 280 0 280 -65 0 -65 0 0 -280z"/>
<path d="M9150 2970 l0 -280 170 0 170 0 0 55 0 55 -105 0 -105 0 0 225 0 225
-65 0 -65 0 0 -280z"/>
<path d="M9540 2971 l0 -281 124 0 c182 0 251 31 303 138 24 49 28 69 28 142
-1 72 -5 93 -27 136 -56 106 -115 135 -295 142 l-133 5 0 -282z m271 132 c40
-34 59 -79 59 -140 0 -55 -24 -109 -60 -135 -14 -9 -51 -21 -82 -24 l-58 -7 0
167 0 166 54 0 c45 0 60 -5 87 -27z"/>
<path d="M8085 2488 c-43 -16 -87 -48 -82 -62 3 -6 10 -10 16 -8 7 1 10 -2 6
-8 -3 -5 -2 -10 4 -10 10 0 9 -19 -2 -37 -5 -7 -5 -19 -1 -25 5 -9 3 -9 -9 1
-9 7 -15 17 -12 21 3 5 -1 10 -7 13 -10 3 -10 7 0 19 8 10 9 19 4 22 -14 8
-29 -13 -41 -62 -19 -68 2 -143 51 -189 71 -66 204 -71 283 -10 20 16 20 16
-7 43 -27 27 -28 27 -48 9 -31 -28 -112 -32 -148 -6 -88 62 -55 210 51 228 26
4 47 0 78 -16 l42 -22 24 23 24 23 -25 22 c-46 40 -137 54 -201 31z m-54 -245
c12 -14 12 -16 0 -8 -10 5 -12 4 -7 -4 4 -6 11 -9 16 -6 5 3 17 -6 28 -20 11
-14 25 -25 31 -25 19 0 7 -25 -14 -31 -22 -6 -76 21 -69 33 3 5 0 8 -6 8 -6 0
-9 4 -6 9 4 5 1 11 -5 13 -9 3 -9 9 0 26 14 26 15 27 32 5z"/>
<path d="M6742 2438 c-11 -29 -42 -100 -67 -158 -26 -58 -53 -120 -60 -137
l-14 -33 43 0 c40 0 44 2 62 43 14 32 24 42 42 41 12 0 51 -1 87 -2 l65 -2 20
-40 c19 -37 24 -40 61 -40 32 0 40 3 36 14 -3 8 -41 94 -83 190 l-77 176 -47
0 -47 0 -21 -52z m121 -15 c-4 -9 -2 -14 3 -11 5 4 10 -8 11 -25 1 -29 1 -30
-8 -9 -5 13 -14 20 -20 16 -8 -4 -9 1 -4 17 7 23 7 23 -8 4 -13 -17 -13 -25 5
-70 36 -89 38 -85 -30 -85 l-61 0 19 54 c10 30 23 63 29 74 6 11 8 22 3 25 -4
2 -1 2 7 0 7 -2 11 2 8 9 -3 8 6 14 24 15 22 2 27 -1 22 -14z m-102 -21 c-16
-30 -13 -40 4 -18 16 22 20 10 5 -14 -17 -27 -33 2 -19 34 7 14 14 24 16 22 3
-2 0 -13 -6 -24z m-81 -222 c0 -5 -5 -10 -11 -10 -5 0 -7 5 -4 10 3 6 8 10 11
10 2 0 4 -4 4 -10z m287 -14 c-4 -10 -1 -13 7 -10 20 8 26 -9 10 -24 -10 -9
-14 -9 -14 -1 0 6 -7 8 -16 5 -8 -3 -12 -2 -9 4 3 6 0 10 -7 10 -8 1 -6 6 6
15 25 19 30 19 23 1z"/>
<path d="M7070 2300 l0 -190 40 0 40 0 0 75 0 75 90 0 90 0 0 30 0 30 -65 1
c-119 3 -110 -2 -113 57 l-3 52 100 0 101 0 0 30 0 30 -140 0 -140 0 0 -190z
m37 123 c-3 -10 -5 -4 -5 12 0 17 2 24 5 18 2 -7 2 -21 0 -30z m33 11 c0 -8
-5 -12 -10 -9 -6 4 -8 11 -5 16 9 14 15 11 15 -7z m160 -145 c0 -5 -4 -9 -8
-9 -5 0 -9 7 -9 15 0 8 4 12 9 9 4 -3 8 -9 8 -15z m-100 -3 c0 -3 -4 -8 -10
-11 -5 -3 -10 -1 -10 4 0 6 5 11 10 11 6 0 10 -2 10 -4z m-60 -21 c0 -8 -6
-15 -12 -16 -10 0 -10 -2 0 -6 18 -7 15 -70 -4 -77 -8 -3 -12 -10 -9 -16 3 -5
4 -10 1 -10 -3 0 -13 16 -22 36 -12 25 -14 38 -6 46 6 6 8 17 5 24 -3 9 2 14
17 14 11 0 18 5 15 10 -3 6 -1 10 4 10 6 0 11 -7 11 -15z"/>
<path d="M7410 2299 l0 -190 43 3 42 3 0 55 0 55 37 3 c35 3 39 0 78 -57 40
-60 42 -61 87 -61 l45 0 -18 28 c-9 15 -28 43 -41 63 l-24 36 36 36 c31 31 35
41 35 85 0 35 -6 57 -21 76 -37 47 -68 56 -189 56 l-110 0 0 -191z m299 115
c14 -32 15 -76 1 -54 -6 10 -10 11 -10 3 0 -7 -7 -13 -16 -13 -9 0 -12 -5 -8
-12 5 -7 3 -8 -5 -3 -8 4 -11 22 -9 45 2 27 0 37 -11 36 -24 -2 -23 22 1 26
33 6 44 0 57 -28z m-85 -5 c32 -25 35 -68 5 -95 -15 -13 -36 -19 -77 -19 l-57
0 -3 54 c-2 29 -1 60 2 67 9 23 98 18 130 -7z m-144 -61 c0 -18 -5 -40 -10
-48 -7 -11 -10 -2 -10 33 0 26 5 47 10 47 6 0 10 -15 10 -32z m7 -68 c-5 -20
7 -28 17 -11 5 7 24 8 59 2 17 -2 -5 -21 -26 -21 -12 0 -32 -1 -44 -1 -13 0
-26 -5 -29 -11 -4 -7 -2 -8 4 -4 7 4 12 3 12 -2 0 -5 -9 -12 -19 -15 -19 -5
-19 -3 2 39 22 47 33 57 24 24z m-60 -72 c-3 -7 -5 -2 -5 12 0 14 2 19 5 13 2
-7 2 -19 0 -25z"/>
<path d="M7803 2300 l0 -190 43 0 44 0 0 190 0 190 -44 0 -43 0 0 -190z m57
140 c0 -45 -16 -53 -30 -15 -11 29 -4 55 16 55 10 0 14 -12 14 -40z m6 -288
c0 -12 -4 -22 -8 -22 -5 0 -12 0 -18 0 -14 0 -12 44 2 58 15 15 27 -2 24 -36z"/>
<path d="M8487 2473 c-3 -10 -37 -90 -77 -178 -39 -88 -74 -166 -77 -172 -4
-9 7 -13 36 -13 40 0 43 2 61 43 l20 44 89 1 90 1 17 -45 c16 -43 18 -44 60
-44 24 0 44 1 44 3 0 3 -100 228 -140 315 l-29 62 -45 0 c-33 0 -45 -4 -49
-17z m84 -1 c11 -3 29 -54 23 -64 -4 -7 -2 -8 4 -4 7 4 12 3 12 -3 0 -5 3 -18
6 -28 4 -14 4 -15 -4 -4 -8 11 -11 10 -19 -4 -8 -14 -12 -12 -26 17 -26 51
-19 10 8 -57 14 -33 25 -61 25 -62 0 -2 -27 -3 -60 -3 -33 0 -60 2 -60 5 0 3
11 33 25 67 29 72 30 74 10 58 -8 -7 -13 -16 -10 -19 2 -4 -2 -8 -9 -8 -15 0
-13 64 3 94 9 18 39 23 72 15z m93 -279 c10 -26 0 -25 -18 1 -13 20 -13 24 -2
20 8 -3 17 -13 20 -21z m39 -28 c-3 -9 -8 -14 -10 -11 -3 3 -2 9 2 15 9 16 15
13 8 -4z"/>
<path d="M8010 2391 c0 -6 4 -13 10 -16 6 -3 7 1 4 9 -7 18 -14 21 -14 7z"/>
<path d="M5738 2313 c134 -2 350 -2 480 0 130 1 21 2 -243 2 -264 0 -371 -1
-237 -2z"/>
</g>
</svg>
